HIERARCHY
ROOT Hips
{
    OFFSET 0.000000 0.000000 0.000000
    CHANNELS 6 Xposition Yposition Zposition Zrotation Xrotation Yrotation
    JOINT Spine
    {
        OFFSET -0.000000 7.236184 0.000000
        CHANNELS 3 Zrotation Xrotation Yrotation
        JOINT Spine1
        {
            OFFSET -0.000000 20.420147 0.000000
            CHANNELS 3 Zrotation Xrotation Yrotation
            JOINT Neck
            {
                OFFSET -0.000000 20.336288 1.848754
                CHANNELS 3 Zrotation Xrotation Yrotation
                JOINT Head
                {
                    OFFSET -0.000000 12.354461 -1.764923
                    CHANNELS 3 Zrotation Xrotation Yrotation
                    End Site
                    {
                        OFFSET -0.000000 22.061537 0.000000
                    }
                }
            }
            JOINT LeftShoulder
            {
                OFFSET 3.573296 18.396038 -0.314103
                CHANNELS 3 Zrotation Xrotation Yrotation
                JOINT LeftArm
                {
                    OFFSET 10.880760 0.000000 0.000000
                    CHANNELS 3 Zrotation Xrotation Yrotation
                    JOINT LeftForeArm
                    {
                        OFFSET 27.185530 0.000000 0.000000
                        CHANNELS 3 Zrotation Xrotation Yrotation
                        JOINT LeftHand
                        {
                            OFFSET 27.825975 0.000000 0.000000
                            CHANNELS 3 Zrotation Xrotation Yrotation
                            End Site
                            {
                                OFFSET 13.236923 0.000000 0.000000
                            }
                        }
                    }
                }
            }
            JOINT RightShoulder
            {
                OFFSET -3.474926 18.396038 -0.314103
                CHANNELS 3 Zrotation Xrotation Yrotation
                JOINT RightArm
                {
                    OFFSET -10.880760 0.000000 0.000000
                    CHANNELS 3 Zrotation Xrotation Yrotation
                    JOINT RightForeArm
                    {
                        OFFSET -27.185530 0.000000 0.000000
                        CHANNELS 3 Zrotation Xrotation Yrotation
                        JOINT RightHand
                        {
                            OFFSET -27.825975 0.000000 0.000000
                            CHANNELS 3 Zrotation Xrotation Yrotation
                            End Site
                            {
                                OFFSET -13.236923 0.000000 0.000000
                            }
                        }
                    }
                }
            }
        }
    }
    JOINT LeftUpLeg
    {
        OFFSET 8.824615 0.000000 0.000000
        CHANNELS 3 Zrotation Xrotation Yrotation
        JOINT LeftLeg
        {
            OFFSET -0.000000 -35.111282 0.000000
            CHANNELS 3 Zrotation Xrotation Yrotation
            JOINT LeftFoot
            {
                OFFSET -0.000000 -42.324711 0.000000
                CHANNELS 3 Zrotation Xrotation Yrotation
                JOINT LeftToeBase
                {
                    OFFSET -0.000000 -5.735999 13.236923
                    CHANNELS 3 Zrotation Xrotation Yrotation
                    End Site
                    {
                        OFFSET -0.000000 0.000000 3.529846
                    }
                }
            }
        }
    }
    JOINT RightUpLeg
    {
        OFFSET -8.824615 0.000000 0.000000
        CHANNELS 3 Zrotation Xrotation Yrotation
        JOINT RightLeg
        {
            OFFSET -0.000000 -35.111282 0.000000
            CHANNELS 3 Zrotation Xrotation Yrotation
            JOINT RightFoot
            {
                OFFSET -0.000000 -42.324711 0.000000
                CHANNELS 3 Zrotation Xrotation Yrotation
                JOINT RightToeBase
                {
                    OFFSET -0.000000 -5.735999 13.236923
                    CHANNELS 3 Zrotation Xrotation Yrotation
                    End Site
                    {
                        OFFSET -0.000000 0.000000 3.529846
                    }
                }
            }
        }
    }
}
MOTION
Frames:    13
Frame Time:    0.008333
16.122223    82.951447    95.049072    26.036217    46.682510    -93.100334    2.791279    -0.510115    1.662197    15.107439    7.271094    0.684304    3.709442    16.788481    -28.742702    38.363373    -4.171210    -23.465206    7.200336    2.976125    -15.328737    -16.365763    13.609947    -70.598297    25.718151    -32.419807    -119.118858    56.601376    2.072787    -19.450533    6.888473    12.926901    2.409799    40.138866    -11.080506    26.406225    -10.627342    -20.209576    -3.708433    -36.876854    -19.265049    -4.042825    61.128536    -56.437141    36.204456    10.147676    45.514259    -7.612027    2.989654    -11.692059    -15.995394    2.679679    1.759041    -2.960962    -66.161018    -38.538071    -30.908213    6.820251    55.943100    0.301356    4.901102    3.782322    -16.643711    1.373078    -0.435727    -1.485969    
16.118711    82.918808    95.016144    26.392006    46.780285    -93.634338    2.604424    -0.718695    1.830073    15.296095    7.414573    0.816711    3.914497    16.732542    -28.745640    38.201321    -4.268816    -23.465502    7.276665    2.978528    -15.513665    -16.615347    13.566742    -70.486382    25.686518    -32.489059    -119.254074    56.858078    2.022317    -19.425972    6.925741    12.863338    2.101175    40.310001    -11.517570    26.404564    -10.661982    -20.421158    -4.020350    -37.146114    -19.434746    -4.237395    61.850586    -56.295677    36.613125    9.803035    45.650890    -7.002324    3.013358    -11.785683    -15.977456    2.653793    1.802807    -2.932137    -65.963982    -38.605972    -30.339945    6.582583    53.462032    0.289403    4.570944    3.647755    -16.946207    1.176835    0.211619    -1.272464    
16.116316    82.902481    94.976158    26.742088    46.857002    -94.177368    2.415266    -0.926921    1.977976    15.479198    7.573408    0.927640    4.105748    16.680424    -28.740421    38.040955    -4.354815    -23.460909    7.340870    2.990261    -15.686366    -16.882387    13.523160    -70.385468    25.646339    -32.537048    -119.393524    57.086239    1.988940    -19.403280    6.968658    12.814278    1.809800    40.482780    -11.864192    26.426008    -10.682375    -20.616632    -4.293977    -37.394703    -19.591522    -4.409924    62.520714    -56.113689    36.935360    9.409166    45.745358    -6.334977    3.027354    -11.859377    -15.961679    2.627074    1.827177    -2.902494    -65.867294    -38.815060    -29.886578    6.553355    51.576412    0.143613    4.244663    3.505857    -17.229891    0.997634    0.759521    -1.077901    
16.113937    82.902756    94.927467    27.070173    46.917522    -94.705444    2.232480    -1.126195    2.099951    15.653409    7.747187    1.011497    4.276057    16.636953    -28.726368    37.889854    -4.425949    -23.450199    7.389717    3.012178    -15.839770    -17.154657    13.482700    -70.305946    25.604376    -32.562756    -119.523926    57.285370    1.971748    -19.386576    7.016054    12.781976    1.546034    40.657494    -12.127182    26.464024    -10.687473    -20.792862    -4.528486    -37.615261    -19.733906    -4.556175    63.124100    -55.897343    37.166492    8.982071    45.795403    -5.631827    3.033237    -11.913332    -15.948046    2.598025    1.832370    -2.870375    -65.880875    -39.159958    -29.608709    6.663551    50.331329    -0.058878    3.909110    3.366479    -17.487307    0.843522    1.179444    -0.910876    
16.110247    82.919151    94.869209    27.358023    46.966805    -95.190453    2.066074    -1.306563    2.190295    15.814470    7.933431    1.063107    4.420191    16.607121    -28.703732    37.753525    -4.481257    -23.432638    7.421159    3.045124    -15.968925    -17.418539    13.448840    -70.255463    25.567879    -32.567375    -119.632050    57.455975    1.968450    -19.379578    7.066495    12.767694    1.317921    40.833027    -12.310882    26.511045    -10.679067    -20.949038    -4.722245    -37.802368    -19.861883    -4.674539    63.644840    -55.656616    37.306835    8.545265    45.800915    -4.927030    3.032232    -11.948136    -15.935867    2.564711    1.820023    -2.833633    -66.007675    -39.624981    -29.563683    6.853587    49.752079    -0.253091    3.558813    3.237559    -17.704271    0.720429    1.451661    -0.777671    
16.103659    82.950912    94.799683    27.594568    47.010395    -95.615685    1.920775    -1.462229    2.246304    15.963304    8.132796    1.079549    4.537817    16.593531    -28.673075    37.631836    -4.521512    -23.408266    7.435158    3.090438    -16.073719    -17.669559    13.423586    -70.237541    25.540512    -32.550816    -119.710281    57.604156    1.975988    -19.385565    7.120152    12.771243    1.124863    41.011814    -12.425283    26.560608    -10.659872    -21.090445    -4.878519    -37.958286    -19.980289    -4.768139    64.080894    -55.397018    37.364521    8.113861    45.763763    -4.243600    3.025765    -11.965749    -15.923487    2.526193    1.793048    -2.791211    -66.248360    -40.197472    -29.793190    7.078016    49.829086    -0.392599    3.187030    3.121276    -17.868156    0.628378    1.572708    -0.678197    
16.092741    82.996384    94.719536    27.761749    47.051033    -95.951836    1.804516    -1.582484    2.264015    16.096836    8.338021    1.058025    4.626923    16.599113    -28.636608    37.525669    -4.547723    -23.378782    7.431932    3.147799    -16.152288    -17.896423    13.409504    -70.253838    25.525543    -32.512520    -119.750046    57.729366    1.990567    -19.407824    7.176163    12.792540    0.970783    41.190044    -12.476243    26.605722    -10.633743    -21.218473    -4.995298    -38.079800    -20.090681    -4.837182    64.417442    -55.132210    37.350342    7.717900    45.688114    -3.630374    3.015200    -11.967875    -15.909701    2.483301    1.755197    -2.744004    -66.595779    -40.844563    -30.315788    7.297262    50.553162    -0.443920    2.805829    3.020383    -17.959042    0.569693    1.537033    -0.614889    
16.076059    83.054276    94.628189    27.852259    47.090813    -96.187134    1.718926    -1.663236    2.243217    16.217010    8.546291    0.998393    4.690698    16.623581    -28.596073    37.428749    -4.562227    -23.346361    7.412990    3.217825    -16.206854    -18.095760    13.406487    -70.301888    25.522787    -32.451466    -119.748207    57.837013    2.007493    -19.448408    7.234826    12.829845    0.851556    41.369091    -12.475148    26.641245    -10.604069    -21.337637    -5.076374    -38.169113    -20.196880    -4.885567    64.655907    -54.867783    37.281982    7.373787    45.578205    -3.114985    3.001125    -11.956673    -15.893593    2.436525    1.710548    -2.692531    -67.046089    -41.544315    -31.122236    7.495520    51.890087    -0.400723    2.423024    2.929551    -17.968676    0.542304    1.352987    -0.585471    
16.052639    83.122726    94.526520    27.861467    47.129040    -96.312889    1.664875    -1.701416    2.185125    16.324448    8.751402    0.902776    4.731911    16.667183    -28.553907    37.338451    -4.568829    -23.312693    7.380789    3.299978    -16.239548    -18.262302    13.414273    -70.376846    25.531433    -32.368053    -119.702393    57.928780    2.020803    -19.508514    7.296635    12.881740    0.763636    41.547558    -12.434588    26.663555    -10.573522    -21.448633    -5.125525    -38.226284    -20.299534    -4.915152    64.796944    -54.610405    37.180111    7.098812    45.439545    -2.726533    2.983758    -11.934278    -15.874900    2.387463    1.662639    -2.638538    -67.592430    -42.268917    -32.171700    7.676992    53.789337    -0.280581    2.054955    2.839846    -17.896358    0.544442    1.033655    -0.588031    
16.022133    83.199677    94.416222    27.791983    47.163017    -96.331161    1.640281    -1.698206    2.093825    16.420885    8.947381    0.775921    4.756262    16.724352    -28.511984    37.244984    -4.569503    -23.281273    7.338705    3.392606    -16.253557    -18.393360    13.431120    -70.471176    25.549269    -32.263439    -119.612930    58.005669    2.024844    -19.587437    7.361472    12.945129    0.701657    41.722607    -12.364838    26.669888    -10.543604    -21.551012    -5.147886    -38.252266    -20.398027    -4.927983    64.846489    -54.363960    37.066181    6.903337    45.277889    -2.482082    2.962981    -11.902999    -15.853663    2.337705    1.614174    -2.583771    -68.225777    -42.993622    -33.400600    7.868529    56.178352    -0.124566    1.719348    2.738556    -17.751131    0.571805    0.601581    -0.617945    
15.984461    83.283890    94.298729    27.650892    47.188389    -96.252090    1.640766    -1.658121    1.974472    16.509697    9.131026    0.623247    4.767333    16.796246    -28.472767    37.152187    -4.573057    -23.251064    7.290386    3.493738    -16.253532    -18.489307    13.454871    -70.577065    25.574726    -32.138783    -119.479179    58.070255    2.014122    -19.684788    7.429738    13.017388    0.657819    41.891830    -12.273144    26.659672    -10.514717    -21.644888    -5.149153    -38.248138    -20.492174    -4.926539    64.811539    -54.127541    36.957012    6.790455    45.096146    -2.385068    2.938380    -11.864644    -15.830354    2.287842    1.566811    -2.528871    -68.942863    -43.705948    -34.751022    8.122147    59.001701    0.006757    1.430267    2.610484    -17.544024    0.619099    0.078276    -0.669531    
15.939389    83.375839    94.174042    27.446724    47.199986    -96.090485    1.660132    -1.587649    1.831744    16.597298    9.303350    0.448790    4.773731    16.875204    -28.437397    37.046047    -4.582367    -23.225248    7.239874    3.601838    -16.245705    -18.555256    13.483332    -70.688255    25.607723    -31.992947    -119.296394    58.124859    1.984298    -19.800844    7.502847    13.095697    0.622583    42.052597    -12.158960    26.631960    -10.485892    -21.733278    -5.134032    -38.215420    -20.584183    -4.914299    64.698372    -53.894203    36.862759    6.756178    44.892536    -2.427684    2.909622    -11.820048    -15.804639    2.237778    1.520549    -2.473737    -69.753227    -44.410809    -36.191555    8.527163    62.253292    0.025387    1.194174    2.438601    -17.282354    0.682515    -0.522427    -0.738722    
15.889104    83.472282    94.048241    27.199839    47.191471    -95.872650    1.688923    -1.498406    1.678020    16.688753    9.458710    0.265452    4.782858    16.954273    -28.410105    36.926727    -4.605062    -23.206190    7.194662    3.709417    -16.239046    -18.596558    13.512411    -70.793900    25.648090    -31.831078    -119.065788    58.170742    1.933798    -19.930172    7.578117    13.172997    0.585534    42.194027    -12.021639    26.588387    -10.457581    -21.817438    -5.106482    -38.157566    -20.673632    -4.897004    64.516479    -53.666111    36.791412    6.795016    44.672649    -2.591303    2.877333    -11.771640    -15.778394    2.188047    1.477570    -2.418947    -70.630173    -45.086533    -37.636356    9.205289    65.783028    -0.202061    1.023176    2.216273    -16.982924    0.755284    -1.161989    -0.818210    
